<?xml version="1.0" encoding="UTF-8"?>
<!-- Generated by Pixelmator Pro 3.1 -->
<svg width="480" height="120" viewBox="0 0 480 120" xmlns="http://www.w3.org/2000/svg" xmlns:xlink="http://www.w3.org/1999/xlink">
    <path id="Path" fill="none" stroke="none" d="M 112.161041 26.566963 C 110.426399 13.673454 99.188858 3.512505 85.867752 1.543579 C 83.620247 1.210876 75.105049 6.9e-05 55.379631 6.9e-05 L 55.232307 6.9e-05 C 35.501354 6.9e-05 31.268309 1.210876 29.0208 1.543579 C 16.070547 3.457947 4.244031 12.588104 1.374678 25.634277 C -0.005446 32.059265 -0.152732 39.182281 0.103655 45.716187 C 0.469143 55.086342 0.540057 64.440063 1.391044 73.772003 C 1.979354 79.97084 3.005649 86.120193 4.462228 92.174103 C 7.189754 103.354958 18.230751 112.659576 29.048122 116.455635 C 40.629601 120.414337 53.084679 121.071571 65.018585 118.353668 C 66.331383 118.048309 67.627945 117.693855 68.908058 117.2901 C 71.810028 116.368492 75.208611 115.337601 77.707016 113.526894 C 77.741356 113.501419 77.769417 113.468559 77.789169 113.430901 C 77.809105 113.393051 77.820183 113.351326 77.821663 113.308685 L 77.821663 104.265846 C 77.820923 104.225975 77.811508 104.186829 77.793785 104.151024 C 77.776062 104.115387 77.75058 104.084007 77.7192 104.059456 C 77.687813 104.034897 77.65126 104.017731 77.612312 104.009048 C 77.57354 104.000374 77.533112 104.000557 77.494339 104.009415 C 69.848305 105.835632 62.013229 106.750961 54.152122 106.736565 C 40.623692 106.736565 36.985107 100.317108 35.943321 97.644623 C 35.105724 95.334892 34.573849 92.925476 34.361355 90.477852 C 34.359138 90.436867 34.366707 90.395691 34.383324 90.35804 C 34.39994 90.320557 34.425228 90.287323 34.457172 90.261292 C 34.489109 90.235268 34.526585 90.216995 34.56683 90.208313 C 34.607079 90.199448 34.6488 90.200371 34.688675 90.210716 C 42.207138 92.024376 49.914463 92.939697 57.648922 92.937668 C 59.508926 92.937668 61.363754 92.937668 63.223938 92.888557 C 71.002708 92.670341 79.201668 92.272316 86.85508 90.777847 C 87.045967 90.739639 87.237045 90.706955 87.400612 90.657852 C 99.472618 88.339821 110.960861 81.064125 112.128365 62.640251 C 112.171936 61.914898 112.281052 55.042778 112.281052 54.290092 C 112.2864 51.732071 113.104797 36.144249 112.161041 26.566963 Z"/>
    <path id="path1" fill="#000000" stroke="none" d="M 22.789293 33.76696 C 22.789293 30.007088 25.804985 26.965729 29.532923 26.965729 C 33.26086 26.965729 36.276371 30.007088 36.276371 33.76696 C 36.276371 37.52684 33.26086 40.568192 29.532923 40.568192 C 25.804985 40.568192 22.789293 37.52684 22.789293 33.76696 Z"/>
    <path id="path2" fill="none" stroke="none" d="M 112.161041 26.566963 C 110.426399 13.673454 99.188858 3.512505 85.867752 1.543579 C 83.620247 1.210876 75.105049 6.9e-05 55.379631 6.9e-05 L 55.232307 6.9e-05 C 35.501354 6.9e-05 31.268309 1.210876 29.0208 1.543579 C 16.070547 3.457947 4.244031 12.588104 1.374678 25.634277 C -0.005446 32.059265 -0.152732 39.182281 0.103655 45.716187 C 0.469143 55.086342 0.540057 64.440063 1.391044 73.772003 C 1.979354 79.97084 3.005649 86.120193 4.462228 92.174103 C 7.189754 103.354958 18.230751 112.659576 29.048122 116.455635 C 40.629601 120.414337 53.084679 121.071571 65.018585 118.353668 C 66.331383 118.048309 67.627945 117.693855 68.908058 117.2901 C 71.810028 116.368492 75.208611 115.337601 77.707016 113.526894 C 77.741356 113.501419 77.769417 113.468559 77.789169 113.430901 C 77.809105 113.393051 77.820183 113.351326 77.821663 113.308685 L 77.821663 104.265846 C 77.820923 104.225975 77.811508 104.186829 77.793785 104.151024 C 77.776062 104.115387 77.75058 104.084007 77.7192 104.059456 C 77.687813 104.034897 77.65126 104.017731 77.612312 104.009048 C 77.57354 104.000374 77.533112 104.000557 77.494339 104.009415 C 69.848305 105.835632 62.013229 106.750961 54.152122 106.736565 C 40.623692 106.736565 36.985107 100.317108 35.943321 97.644623 C 35.105724 95.334892 34.573849 92.925476 34.361355 90.477852 C 34.359138 90.436867 34.366707 90.395691 34.383324 90.35804 C 34.39994 90.320557 34.425228 90.287323 34.457172 90.261292 C 34.489109 90.235268 34.526585 90.216995 34.56683 90.208313 C 34.607079 90.199448 34.6488 90.200371 34.688675 90.210716 C 42.207138 92.024376 49.914463 92.939697 57.648922 92.937668 C 59.508926 92.937668 61.363754 92.937668 63.223938 92.888557 C 71.002708 92.670341 79.201668 92.272316 86.85508 90.777847 C 87.045967 90.739639 87.237045 90.706955 87.400612 90.657852 C 99.472618 88.339821 110.960861 81.064125 112.128365 62.640251 C 112.171936 61.914898 112.281052 55.042778 112.281052 54.290092 C 112.2864 51.732071 113.104797 36.144249 112.161041 26.566963 Z"/>
    <path id="path3" fill="#000000" stroke="none" d="M 22.789293 33.76696 C 22.789293 30.007088 25.804985 26.965729 29.532923 26.965729 C 33.26086 26.965729 36.276371 30.007088 36.276371 33.76696 C 36.276371 37.52684 33.26086 40.568192 29.532923 40.568192 C 25.804985 40.568192 22.789293 37.52684 22.789293 33.76696 Z"/>
    <path id="path4" fill="none" stroke="none" d="M 112.161041 26.566963 C 110.426399 13.673454 99.188858 3.512505 85.867752 1.543579 C 83.620247 1.210876 75.105049 6.9e-05 55.379631 6.9e-05 L 55.232307 6.9e-05 C 35.501354 6.9e-05 31.268309 1.210876 29.0208 1.543579 C 16.070547 3.457947 4.244031 12.588104 1.374678 25.634277 C -0.005446 32.059265 -0.152732 39.182281 0.103655 45.716187 C 0.469143 55.086342 0.540057 64.440063 1.391044 73.772003 C 1.979354 79.97084 3.005649 86.120193 4.462228 92.174103 C 7.189754 103.354958 18.230751 112.659576 29.048122 116.455635 C 40.629601 120.414337 53.084679 121.071571 65.018585 118.353668 C 66.331383 118.048309 67.627945 117.693855 68.908058 117.2901 C 71.810028 116.368492 75.208611 115.337601 77.707016 113.526894 C 77.741356 113.501419 77.769417 113.468559 77.789169 113.430901 C 77.809105 113.393051 77.820183 113.351326 77.821663 113.308685 L 77.821663 104.265846 C 77.820923 104.225975 77.811508 104.186829 77.793785 104.151024 C 77.776062 104.115387 77.75058 104.084007 77.7192 104.059456 C 77.687813 104.034897 77.65126 104.017731 77.612312 104.009048 C 77.57354 104.000374 77.533112 104.000557 77.494339 104.009415 C 69.848305 105.835632 62.013229 106.750961 54.152122 106.736565 C 40.623692 106.736565 36.985107 100.317108 35.943321 97.644623 C 35.105724 95.334892 34.573849 92.925476 34.361355 90.477852 C 34.359138 90.436867 34.366707 90.395691 34.383324 90.35804 C 34.39994 90.320557 34.425228 90.287323 34.457172 90.261292 C 34.489109 90.235268 34.526585 90.216995 34.56683 90.208313 C 34.607079 90.199448 34.6488 90.200371 34.688675 90.210716 C 42.207138 92.024376 49.914463 92.939697 57.648922 92.937668 C 59.508926 92.937668 61.363754 92.937668 63.223938 92.888557 C 71.002708 92.670341 79.201668 92.272316 86.85508 90.777847 C 87.045967 90.739639 87.237045 90.706955 87.400612 90.657852 C 99.472618 88.339821 110.960861 81.064125 112.128365 62.640251 C 112.171936 61.914898 112.281052 55.042778 112.281052 54.290092 C 112.2864 51.732071 113.104797 36.144249 112.161041 26.566963 Z"/>
    <path id="PlanetlySocial" fill="#1eb100" fill-rule="evenodd" stroke="none" d="M 472.240387 14.71154 L 480.461548 14.71154 L 480.461548 57.23077 L 472.240387 57.23077 Z M 440.394226 29.192307 C 442.567322 26.423065 446.298065 25.03846 451.586548 25.03846 C 455.02887 25.03846 458.086517 25.721146 460.759613 27.08654 C 463.432709 28.451927 464.769226 31.028824 464.769226 34.817307 L 464.769226 49.240387 C 464.769226 50.240387 464.788483 51.45192 464.826935 52.875 C 464.884613 53.951927 465.048096 54.682686 465.317322 55.067307 C 465.586517 55.451927 465.990387 55.769226 466.528839 56.01923 L 466.528839 57.23077 L 457.586548 57.23077 C 457.336517 56.596153 457.163452 56.000004 457.067322 55.442307 C 456.971161 54.884613 456.894226 54.25 456.836548 53.53846 C 455.701904 54.769241 454.394257 55.817299 452.913452 56.682693 C 451.144226 57.701927 449.144257 58.21154 446.913452 58.21154 C 444.067291 58.21154 441.71637 57.399044 439.860565 55.77404 C 438.004791 54.149033 437.076935 51.846169 437.076935 48.865387 C 437.076935 44.999977 438.567291 42.201927 441.548065 40.471153 C 443.182709 39.528847 445.586517 38.855766 448.759613 38.45192 L 451.557678 38.105766 C 453.076935 37.91346 454.163452 37.67308 454.817322 37.384613 C 455.990387 36.884613 456.576935 36.105774 456.576935 35.04808 C 456.576935 33.759605 456.129822 32.870193 455.235565 32.379807 C 454.341339 31.88942 453.028839 31.644234 451.298065 31.644234 C 449.355743 31.644234 447.980774 32.124992 447.173065 33.08654 C 446.596161 33.79808 446.211548 34.759605 446.019226 35.971153 L 438.086548 35.971153 C 438.259613 33.221146 439.028839 30.961548 440.394226 29.192307 Z M 446.509613 51.28846 C 447.27887 51.92308 448.22113 52.240387 449.336548 52.240387 C 451.105774 52.240387 452.735565 51.721161 454.225952 50.682693 C 455.71637 49.644226 456.490387 47.750015 456.548065 45 L 456.548065 41.942307 C 456.028839 42.269234 455.504791 42.533653 454.975952 42.73558 C 454.447113 42.9375 453.721161 43.125 452.798065 43.29808 L 450.951935 43.644234 C 449.221161 43.951927 447.980774 44.32692 447.230774 44.769234 C 445.961548 45.519241 445.326935 46.682686 445.326935 48.259613 C 445.326935 49.663467 445.721161 50.673073 446.509613 51.28846 Z M 431.25 25.78846 L 431.25 57.23077 L 422.913452 57.23077 L 422.913452 25.78846 Z M 431.25 14.45192 L 431.25 22.03846 L 422.913452 22.03846 L 422.913452 14.45192 Z M 417.144226 37.067307 L 408.721161 37.067307 C 408.567322 35.894226 408.173065 34.83654 407.538452 33.894234 C 406.615387 32.624992 405.182709 31.990387 403.240387 31.990387 C 400.471161 31.990387 398.576935 33.365372 397.557678 36.115387 C 397.019226 37.576935 396.75 39.519218 396.75 41.942307 C 396.75 44.250015 397.019226 46.105759 397.557678 47.509613 C 398.538452 50.125015 400.384613 51.432693 403.096161 51.432693 C 405.019226 51.432693 406.384613 50.913467 407.192322 49.875 C 408 48.836533 408.490387 47.490395 408.663452 45.83654 L 417.057678 45.83654 C 416.865387 48.336548 415.961548 50.701912 414.346161 52.932693 C 411.769226 56.528862 407.951935 58.326923 402.894226 58.326923 C 397.836517 58.326923 394.115387 56.826939 391.730774 53.82692 C 389.34613 50.826912 388.153839 46.932716 388.153839 42.144234 C 388.153839 36.740356 389.47113 32.538475 392.105774 29.53846 C 394.740417 26.538445 398.375 25.03846 403.009613 25.03846 C 406.951935 25.03846 410.177887 25.923065 412.6875 27.692307 C 415.197113 29.461548 416.682678 32.58651 417.144226 37.067307 Z M 380.076935 29.769234 C 382.730774 33.096176 384.057678 37.028824 384.057678 41.567307 C 384.057678 46.182716 382.730774 50.129791 380.076935 53.408653 C 377.423065 56.687515 373.394257 58.326923 367.990387 58.326923 C 362.586517 58.326923 358.557678 56.687515 355.903839 53.408653 C 353.25 50.129791 351.923065 46.182716 351.923065 41.567307 C 351.923065 37.028824 353.25 33.096176 355.903839 29.769234 C 358.557678 26.442291 362.586517 24.778847 367.990387 24.778847 C 373.394257 24.778847 377.423065 26.442291 380.076935 29.769234 Z M 367.961548 31.730766 C 365.557678 31.730766 363.706726 32.581726 362.408661 34.283653 C 361.110565 35.98558 360.461548 38.413445 360.461548 41.567307 C 360.461548 44.721176 361.110565 47.153831 362.408661 48.865387 C 363.706726 50.576935 365.557678 51.432693 367.961548 51.432693 C 370.365417 51.432693 372.211517 50.576935 373.5 48.865387 C 374.788483 47.153831 375.432678 44.721176 375.432678 41.567307 C 375.432678 38.413445 374.788483 35.98558 373.5 34.283653 C 372.211517 32.581726 370.365417 31.730766 367.961548 31.730766 Z M 330.548065 51.08654 C 332.644226 51.08654 334.34613 50.855766 335.653839 50.394234 C 338.134613 49.509613 339.375 47.865395 339.375 45.46154 C 339.375 44.057686 338.759613 42.971153 337.528839 42.20192 C 336.298065 41.45192 334.365417 40.78846 331.730774 40.21154 L 327.230774 39.20192 C 322.807678 38.20192 319.75 37.115387 318.057678 35.942307 C 315.192291 33.980759 313.759613 30.913483 313.759613 26.740387 C 313.759613 22.932671 315.144226 19.769241 317.913452 17.25 C 320.682678 14.730759 324.749969 13.471153 330.115387 13.471153 C 334.596161 13.471153 338.418274 14.658646 341.581726 17.033653 C 344.745209 19.408669 346.40387 22.855743 346.557678 27.375 L 338.019226 27.375 C 337.865387 24.817299 336.75 23.000008 334.673065 21.92308 C 333.288452 21.211533 331.567322 20.855766 329.509613 20.855766 C 327.22113 20.855766 325.394257 21.317299 324.028839 22.240387 C 322.663452 23.163467 321.980774 24.451912 321.980774 26.105766 C 321.980774 27.625008 322.653839 28.759605 324 29.509613 C 324.865387 30.009621 326.711517 30.596146 329.538452 31.269234 L 336.865387 33.028847 C 340.076935 33.79808 342.5 34.826912 344.134613 36.115387 C 346.673065 38.115395 347.942322 41.009598 347.942322 44.79808 C 347.942322 48.682709 346.456757 51.908638 343.485565 54.47596 C 340.514404 57.043282 336.317322 58.326923 330.894226 58.326923 C 325.355743 58.326923 321.000031 57.062508 317.826935 54.533653 C 314.653809 52.004799 313.067322 48.528862 313.067322 44.105766 L 321.548065 44.105766 C 321.817291 46.048088 322.346161 47.499992 323.134613 48.46154 C 324.576935 50.211548 327.048065 51.08654 330.548065 51.08654 Z M 297.894226 48.634613 L 306.634613 48.634613 L 306.634613 57.23077 L 297.894226 57.23077 Z M 282.317322 48.980766 L 288.807678 25.78846 L 297.548065 25.78846 L 286.759613 56.71154 C 284.682678 62.673107 283.038452 66.370186 281.826935 67.802887 C 280.615387 69.23558 278.192322 69.95192 274.557678 69.95192 C 273.826935 69.95192 273.240387 69.947113 272.798065 69.9375 C 272.355774 69.927887 271.692322 69.894226 270.807678 69.83654 L 270.807678 63.259617 L 271.846161 63.317307 C 272.653839 63.355766 273.423096 63.32692 274.153839 63.23077 C 274.884613 63.134617 275.5 62.91346 276 62.567307 C 276.480774 62.240379 276.927887 61.557701 277.341339 60.51923 C 277.754791 59.480762 277.923096 58.846153 277.846161 58.615383 L 266.307678 25.78846 L 275.451935 25.78846 Z M 253.29808 14.71154 L 261.519226 14.71154 L 261.519226 57.23077 L 253.29808 57.23077 Z M 247.846161 51.375 L 247.846161 57.51923 L 243.95192 57.66346 C 240.067291 57.79808 237.413467 57.125004 235.990387 55.644234 C 235.067307 54.70192 234.605774 53.250008 234.605774 51.28846 L 234.605774 31.932693 L 230.221161 31.932693 L 230.221161 26.07692 L 234.605774 26.07692 L 234.605774 17.307693 L 242.740387 17.307693 L 242.740387 26.07692 L 247.846161 26.07692 L 247.846161 31.932693 L 242.740387 31.932693 L 242.740387 48.54808 C 242.740387 49.836548 242.903854 50.63942 243.230774 50.956734 C 243.557678 51.27404 244.557693 51.432693 246.230774 51.432693 C 246.480774 51.432693 246.745178 51.427879 247.024033 51.418266 C 247.302887 51.408653 247.576935 51.394234 247.846161 51.375 Z M 227.509613 48 C 227.298065 49.865395 226.326935 51.759605 224.596161 53.682693 C 221.903824 56.740398 218.134644 58.26923 213.288467 58.26923 C 209.288437 58.26923 205.759628 56.980782 202.70192 54.403847 C 199.644211 51.826912 198.115387 47.634644 198.115387 41.82692 C 198.115387 36.384583 199.495178 32.211555 202.254807 29.307693 C 205.014435 26.403831 208.59613 24.95192 213 24.95192 C 215.615387 24.95192 217.971146 25.442299 220.067307 26.42308 C 222.163467 27.403854 223.894226 28.951912 225.259613 31.067307 C 226.490387 32.932701 227.288467 35.096146 227.653839 37.557693 C 227.865387 39.000008 227.951935 41.076912 227.913467 43.78846 L 206.394226 43.78846 C 206.509613 46.942329 207.499985 49.153839 209.365387 50.42308 C 210.5 51.21154 211.865387 51.605766 213.461533 51.605766 C 215.153854 51.605766 216.528839 51.125008 217.586533 50.16346 C 218.163467 49.644234 218.673065 48.92308 219.115387 48 Z M 219.375 38.365387 C 219.240387 36.192299 218.581726 34.543274 217.399033 33.418266 C 216.216339 32.293259 214.750015 31.730766 213 31.730766 C 211.096146 31.730766 209.620193 32.32692 208.572113 33.519234 C 207.524033 34.71154 206.865387 36.326912 206.596161 38.365387 Z M 179.307693 31.875 C 176.519226 31.875 174.605774 33.057678 173.567307 35.42308 C 173.028839 36.67308 172.759613 38.269218 172.759613 40.21154 L 172.759613 57.23077 L 164.567307 57.23077 L 164.567307 25.846153 L 172.5 25.846153 L 172.5 30.432693 C 173.557709 28.817299 174.557678 27.653847 175.5 26.942307 C 177.192322 25.673073 179.336517 25.03846 181.932693 25.03846 C 185.182709 25.03846 187.841339 25.88942 189.908661 27.591347 C 191.975967 29.293274 193.009613 32.115372 193.009613 36.057693 L 193.009613 57.23077 L 184.586533 57.23077 L 184.586533 38.105766 C 184.586533 36.451912 184.365387 35.182693 183.92308 34.29808 C 183.115387 32.682686 181.576935 31.875 179.307693 31.875 Z M 132.836533 29.192307 C 135.009613 26.423065 138.740356 25.03846 144.028839 25.03846 C 147.471176 25.03846 150.528839 25.721146 153.20192 27.08654 C 155.875015 28.451927 157.211533 31.028824 157.211533 34.817307 L 157.211533 49.240387 C 157.211533 50.240387 157.230759 51.45192 157.269226 52.875 C 157.32692 53.951927 157.490387 54.682686 157.759613 55.067307 C 158.028854 55.451927 158.432678 55.769226 158.971161 56.01923 L 158.971161 57.23077 L 150.028839 57.23077 C 149.778854 56.596153 149.605774 56.000004 149.509613 55.442307 C 149.413452 54.884613 149.336533 54.25 149.278839 53.53846 C 148.144226 54.769241 146.836548 55.817299 145.355774 56.682693 C 143.586533 57.701927 141.586548 58.21154 139.355774 58.21154 C 136.509613 58.21154 134.158661 57.399044 132.302887 55.77404 C 130.447113 54.149033 129.519226 51.846169 129.519226 48.865387 C 129.519226 44.999977 131.009598 42.201927 133.990387 40.471153 C 135.625015 39.528847 138.028839 38.855766 141.20192 38.45192 L 144 38.105766 C 145.519241 37.91346 146.605759 37.67308 147.259613 37.384613 C 148.432709 36.884613 149.019226 36.105774 149.019226 35.04808 C 149.019226 33.759605 148.572113 32.870193 147.677887 32.379807 C 146.783661 31.88942 145.471161 31.644234 143.740387 31.644234 C 141.798065 31.644234 140.42308 32.124992 139.615387 33.08654 C 139.038467 33.79808 138.653839 34.759605 138.461533 35.971153 L 130.528839 35.971153 C 130.70192 33.221146 131.471146 30.961548 132.836533 29.192307 Z M 138.95192 51.28846 C 139.721161 51.92308 140.663452 52.240387 141.778839 52.240387 C 143.54808 52.240387 145.177872 51.721161 146.668274 50.682693 C 148.158661 49.644226 148.932693 47.750015 148.990387 45 L 148.990387 41.942307 C 148.471161 42.269234 147.947113 42.533653 147.418274 42.73558 C 146.88942 42.9375 146.163467 43.125 145.240387 43.29808 L 143.394226 43.644234 C 141.663452 43.951927 140.42308 44.32692 139.67308 44.769234 C 138.403839 45.519241 137.769226 46.682686 137.769226 48.259613 C 137.769226 49.663467 138.163452 50.673073 138.95192 51.28846 Z M 115.41346 14.71154 L 123.634613 14.71154 L 123.634613 57.23077 L 115.41346 57.23077 Z M 94.557693 41.942307 L 85.528847 41.942307 L 85.528847 57.23077 L 76.70192 57.23077 L 76.70192 14.71154 L 95.221153 14.71154 C 99.490402 14.71154 102.894218 15.807678 105.432693 18 C 107.971169 20.192322 109.240387 23.58651 109.240387 28.182693 C 109.240387 33.20195 107.971169 36.749992 105.432693 38.82692 C 102.894218 40.903854 99.269257 41.942307 94.557693 41.942307 Z M 98.71154 33.08654 C 99.865395 32.067307 100.442307 30.451935 100.442307 28.240387 C 100.442307 26.028839 99.86058 24.451927 98.697113 23.509613 C 97.533646 22.567307 95.903854 22.096153 93.807693 22.096153 L 85.528847 22.096153 L 85.528847 34.615387 L 93.807693 34.615387 C 95.903854 34.615387 97.53846 34.105774 98.71154 33.08654 Z"/>
    <path id="path5" fill="#000000" stroke="none" d="M 22.789293 33.76696 C 22.789293 30.007088 25.804985 26.965729 29.532923 26.965729 C 33.26086 26.965729 36.276371 30.007088 36.276371 33.76696 C 36.276371 37.52684 33.26086 40.568192 29.532923 40.568192 C 25.804985 40.568192 22.789293 37.52684 22.789293 33.76696 Z"/>
    <g id="Group">
        <path id="path6" fill="#000000" stroke="none" d="M 251.965866 95.420563 L 251.965866 115.328644 L 244.139816 115.328644 L 244.139816 96.015968 C 244.139816 91.939697 242.444458 89.878677 239.038452 89.878677 C 235.284424 89.878677 233.392166 92.336678 233.392166 97.176292 L 233.392166 107.756332 L 225.62674 107.756332 L 225.62674 97.176292 C 225.62674 92.321373 223.749664 89.878677 219.980453 89.878677 C 216.58963 89.878677 214.879089 91.939697 214.879089 96.015968 L 214.879089 115.328644 L 207.068222 115.328644 L 207.068222 95.420563 C 207.068222 91.359596 208.097565 88.123062 210.156235 85.726151 C 212.290695 83.329231 215.075882 82.107826 218.527313 82.107826 C 222.523544 82.107826 225.566116 83.665131 227.564301 86.764313 L 229.517044 90.06192 L 231.469788 86.764313 C 233.46785 83.665131 236.495361 82.107826 240.506775 82.107826 C 243.958099 82.107826 246.743393 83.329231 248.877853 85.726151 C 250.936523 88.123062 251.965866 91.344299 251.965866 95.420563 Z M 278.895325 105.313522 C 280.515015 103.588394 281.287079 101.435806 281.287079 98.825157 C 281.287079 96.214516 280.515015 94.046623 278.895325 92.397766 C 277.336151 90.67263 275.368347 89.848198 272.976593 89.848198 C 270.584869 89.848198 268.617065 90.67263 267.057861 92.397766 C 265.498688 94.046623 264.726746 96.214516 264.726746 98.825157 C 264.726746 101.435806 265.498688 103.603691 267.057861 105.313522 C 268.617065 106.962387 270.584869 107.802124 272.976593 107.802124 C 275.368347 107.802124 277.336151 106.977684 278.895325 105.313522 Z M 281.287079 82.901779 L 288.992004 82.901779 L 288.992004 114.748535 L 281.287079 114.748535 L 281.287079 110.992867 C 278.955841 114.107353 275.731659 115.649231 271.538513 115.649231 C 267.34552 115.649231 264.121216 114.061569 261.260223 110.809624 C 258.444702 107.557793 257.02179 103.54261 257.02179 98.840454 C 257.02179 94.138191 258.459747 90.18409 261.260223 86.932144 C 264.136292 83.680313 267.542297 82.031555 271.538513 82.031555 C 275.534882 82.031555 278.955841 83.558258 281.287079 86.67263 L 281.287079 82.916962 L 281.287079 82.901779 Z M 314.937683 98.244934 C 317.207977 99.970184 318.343689 102.382278 318.282501 105.435684 C 318.282501 108.687515 317.147949 111.237198 314.816467 113.00811 C 312.484985 114.733238 309.6698 115.618752 306.263794 115.618752 C 300.102631 115.618752 295.924561 113.069191 293.714294 108.046333 L 300.40509 104.031143 C 301.29837 106.763962 303.266174 108.168495 306.263794 108.168495 C 309.018951 108.168495 310.380646 107.282982 310.380646 105.435684 C 310.380646 104.092224 308.595276 102.886124 304.946808 101.939529 C 303.569824 101.557968 302.434082 101.176292 301.540802 100.855576 C 300.285034 100.35186 299.20932 99.771637 298.31723 99.069366 C 296.106964 97.344238 294.971252 95.054184 294.971252 92.122948 C 294.971252 89.008461 296.045776 86.519989 298.196014 84.733772 C 300.40509 82.886475 303.10022 82.000961 306.323822 82.000961 C 311.47168 82.000961 315.224884 84.229935 317.677582 88.748947 L 311.108002 92.565704 C 310.154694 90.39782 308.534058 89.313873 306.323822 89.313873 C 303.99353 89.313873 302.857788 90.199272 302.857788 91.924515 C 302.857788 93.267975 304.644348 94.474083 308.292816 95.420563 C 311.108002 96.061867 313.318268 97.008347 314.922394 98.229752 L 314.937683 98.244934 Z M 339.444733 90.794678 L 332.693878 90.794678 L 332.693878 104.046448 C 332.693878 105.634232 333.298828 106.596016 334.43457 107.038765 C 335.266632 107.35936 336.947296 107.420441 339.460022 107.298279 L 339.460022 114.748535 C 334.268616 115.389725 330.498962 114.870705 328.288696 113.160751 C 326.07843 111.511887 325.003906 108.443306 325.003906 104.06163 L 325.003906 90.794678 L 319.81131 90.794678 L 319.81131 82.901779 L 325.003906 82.901779 L 325.003906 76.47435 L 332.709198 73.98584 L 332.709198 82.901779 L 339.460022 82.901779 L 339.460022 90.794678 L 339.444733 90.794678 Z M 364.012939 105.130394 C 365.572357 103.481529 366.344391 101.374725 366.344391 98.825157 C 366.344391 96.275597 365.572357 94.183975 364.012939 92.519928 C 362.453491 90.871056 360.546906 90.031326 358.215424 90.031326 C 355.883942 90.031326 353.977325 90.855759 352.417908 92.519928 C 350.919678 94.245056 350.147614 96.336678 350.147614 98.825157 C 350.147614 101.313644 350.919678 103.405258 352.417908 105.130394 C 353.977325 106.779137 355.883942 107.618874 358.215424 107.618874 C 360.546906 107.618874 362.453491 106.794441 364.012939 105.130394 Z M 346.98407 110.794434 C 343.940552 107.542488 342.442322 103.603691 342.442322 98.825157 C 342.442322 94.046623 343.940552 90.168793 346.98407 86.916962 C 350.026398 83.665131 353.794891 82.016258 358.215424 82.016258 C 362.635925 82.016258 366.404419 83.665131 369.447937 86.916962 C 372.490265 90.168793 374.049713 94.183975 374.049713 98.825157 C 374.049713 103.466225 372.490265 107.542488 369.447937 110.794434 C 366.404419 114.046272 362.695953 115.634048 358.215424 115.634048 C 353.734894 115.634048 350.026398 114.046272 346.98407 110.794434 Z M 399.81366 105.313522 C 401.371918 103.588394 402.143982 101.435806 402.143982 98.825157 C 402.143982 96.214516 401.371918 94.046623 399.81366 92.397766 C 398.254242 90.67263 396.286438 89.848198 393.894958 89.848198 C 391.502258 89.848198 389.534454 90.67263 387.915009 92.397766 C 386.355591 94.046623 385.583527 96.214516 385.583527 98.825157 C 385.583527 101.435806 386.355591 103.603691 387.915009 105.313522 C 389.534454 106.962387 391.563446 107.802124 393.894958 107.802124 C 396.22525 107.802124 398.254242 106.977684 399.81366 105.313522 Z M 402.143982 70.153847 L 409.849274 70.153847 L 409.849274 114.748535 L 402.143982 114.748535 L 402.143982 110.992867 C 399.873688 114.107353 396.648926 115.649231 392.456757 115.649231 C 388.263367 115.649231 384.993896 114.061569 382.117493 110.809624 C 379.302307 107.557793 377.879395 103.54261 377.879395 98.840454 C 377.879395 94.138191 379.317596 90.18409 382.117493 86.932144 C 384.978577 83.680313 388.444611 82.031555 392.456757 82.031555 C 396.467682 82.031555 399.873688 83.558258 402.143982 86.67263 L 402.143982 70.169113 L 402.143982 70.153847 Z M 436.930206 105.115089 C 438.489624 103.466225 439.261688 101.359421 439.261688 98.80986 C 439.261688 96.2603 438.489624 94.168671 436.930206 92.504623 C 435.370789 90.855759 433.464203 90.016144 431.132721 90.016144 C 428.801239 90.016144 426.893433 90.840576 425.335175 92.504623 C 423.835815 94.229752 423.063751 96.321381 423.063751 98.80986 C 423.063751 101.29834 423.835815 103.389961 425.335175 105.115089 C 426.893433 106.763962 428.801239 107.603569 431.132721 107.603569 C 433.464203 107.603569 435.370789 106.779137 436.930206 105.115089 Z M 419.900177 110.779137 C 416.857849 107.527306 415.359619 103.588394 415.359619 98.80986 C 415.359619 94.031326 416.857849 90.153488 419.900177 86.901657 C 422.943695 83.649826 426.712189 82.000961 431.132721 82.000961 C 435.552032 82.000961 439.321716 83.649826 442.364044 86.901657 C 445.407562 90.153488 446.96582 94.168671 446.96582 98.80986 C 446.96582 103.451042 445.407562 107.527306 442.364044 110.779137 C 439.321716 114.030968 435.61322 115.618752 431.132721 115.618752 C 426.652161 115.618752 422.943695 114.030968 419.900177 110.779137 Z M 480.313873 95.176346 L 480.313873 114.733238 L 472.608551 114.733238 L 472.608551 96.199219 C 472.608551 94.092407 472.078949 92.504623 470.989105 91.298515 C 469.974609 90.214569 468.537598 89.649651 466.689819 89.649651 C 462.330505 89.649651 460.120239 92.260292 460.120239 97.542664 L 460.120239 114.733238 L 452.416138 114.733238 L 452.416138 82.901779 L 460.120239 82.901779 L 460.120239 86.474197 C 461.966827 83.48188 464.904419 82.016258 469.021301 82.016258 C 472.306091 82.016258 475.001251 83.161285 477.090271 85.512421 C 479.239319 87.863434 480.313873 91.054306 480.313873 95.19165"/>
        <path id="path7" fill="#000000" stroke="none" d="M 251.965866 95.420563 L 251.965866 115.328644 L 244.139816 115.328644 L 244.139816 96.015968 C 244.139816 91.939697 242.444458 89.878677 239.038452 89.878677 C 235.284424 89.878677 233.392166 92.336678 233.392166 97.176292 L 233.392166 107.756332 L 225.62674 107.756332 L 225.62674 97.176292 C 225.62674 92.321373 223.749664 89.878677 219.980453 89.878677 C 216.58963 89.878677 214.879089 91.939697 214.879089 96.015968 L 214.879089 115.328644 L 207.068222 115.328644 L 207.068222 95.420563 C 207.068222 91.359596 208.097565 88.123062 210.156235 85.726151 C 212.290695 83.329231 215.075882 82.107826 218.527313 82.107826 C 222.523544 82.107826 225.566116 83.665131 227.564301 86.764313 L 229.517044 90.06192 L 231.469788 86.764313 C 233.46785 83.665131 236.495361 82.107826 240.506775 82.107826 C 243.958099 82.107826 246.743393 83.329231 248.877853 85.726151 C 250.936523 88.123062 251.965866 91.344299 251.965866 95.420563 Z M 278.895325 105.313522 C 280.515015 103.588394 281.287079 101.435806 281.287079 98.825157 C 281.287079 96.214516 280.515015 94.046623 278.895325 92.397766 C 277.336151 90.67263 275.368347 89.848198 272.976593 89.848198 C 270.584869 89.848198 268.617065 90.67263 267.057861 92.397766 C 265.498688 94.046623 264.726746 96.214516 264.726746 98.825157 C 264.726746 101.435806 265.498688 103.603691 267.057861 105.313522 C 268.617065 106.962387 270.584869 107.802124 272.976593 107.802124 C 275.368347 107.802124 277.336151 106.977684 278.895325 105.313522 Z M 281.287079 82.901779 L 288.992004 82.901779 L 288.992004 114.748535 L 281.287079 114.748535 L 281.287079 110.992867 C 278.955841 114.107353 275.731659 115.649231 271.538513 115.649231 C 267.34552 115.649231 264.121216 114.061569 261.260223 110.809624 C 258.444702 107.557793 257.02179 103.54261 257.02179 98.840454 C 257.02179 94.138191 258.459747 90.18409 261.260223 86.932144 C 264.136292 83.680313 267.542297 82.031555 271.538513 82.031555 C 275.534882 82.031555 278.955841 83.558258 281.287079 86.67263 L 281.287079 82.916962 L 281.287079 82.901779 Z M 314.937683 98.244934 C 317.207977 99.970184 318.343689 102.382278 318.282501 105.435684 C 318.282501 108.687515 317.147949 111.237198 314.816467 113.00811 C 312.484985 114.733238 309.6698 115.618752 306.263794 115.618752 C 300.102631 115.618752 295.924561 113.069191 293.714294 108.046333 L 300.40509 104.031143 C 301.29837 106.763962 303.266174 108.168495 306.263794 108.168495 C 309.018951 108.168495 310.380646 107.282982 310.380646 105.435684 C 310.380646 104.092224 308.595276 102.886124 304.946808 101.939529 C 303.569824 101.557968 302.434082 101.176292 301.540802 100.855576 C 300.285034 100.35186 299.20932 99.771637 298.31723 99.069366 C 296.106964 97.344238 294.971252 95.054184 294.971252 92.122948 C 294.971252 89.008461 296.045776 86.519989 298.196014 84.733772 C 300.40509 82.886475 303.10022 82.000961 306.323822 82.000961 C 311.47168 82.000961 315.224884 84.229935 317.677582 88.748947 L 311.108002 92.565704 C 310.154694 90.39782 308.534058 89.313873 306.323822 89.313873 C 303.99353 89.313873 302.857788 90.199272 302.857788 91.924515 C 302.857788 93.267975 304.644348 94.474083 308.292816 95.420563 C 311.108002 96.061867 313.318268 97.008347 314.922394 98.229752 L 314.937683 98.244934 Z M 339.444733 90.794678 L 332.693878 90.794678 L 332.693878 104.046448 C 332.693878 105.634232 333.298828 106.596016 334.43457 107.038765 C 335.266632 107.35936 336.947296 107.420441 339.460022 107.298279 L 339.460022 114.748535 C 334.268616 115.389725 330.498962 114.870705 328.288696 113.160751 C 326.07843 111.511887 325.003906 108.443306 325.003906 104.06163 L 325.003906 90.794678 L 319.81131 90.794678 L 319.81131 82.901779 L 325.003906 82.901779 L 325.003906 76.47435 L 332.709198 73.98584 L 332.709198 82.901779 L 339.460022 82.901779 L 339.460022 90.794678 L 339.444733 90.794678 Z M 364.012939 105.130394 C 365.572357 103.481529 366.344391 101.374725 366.344391 98.825157 C 366.344391 96.275597 365.572357 94.183975 364.012939 92.519928 C 362.453491 90.871056 360.546906 90.031326 358.215424 90.031326 C 355.883942 90.031326 353.977325 90.855759 352.417908 92.519928 C 350.919678 94.245056 350.147614 96.336678 350.147614 98.825157 C 350.147614 101.313644 350.919678 103.405258 352.417908 105.130394 C 353.977325 106.779137 355.883942 107.618874 358.215424 107.618874 C 360.546906 107.618874 362.453491 106.794441 364.012939 105.130394 Z M 346.98407 110.794434 C 343.940552 107.542488 342.442322 103.603691 342.442322 98.825157 C 342.442322 94.046623 343.940552 90.168793 346.98407 86.916962 C 350.026398 83.665131 353.794891 82.016258 358.215424 82.016258 C 362.635925 82.016258 366.404419 83.665131 369.447937 86.916962 C 372.490265 90.168793 374.049713 94.183975 374.049713 98.825157 C 374.049713 103.466225 372.490265 107.542488 369.447937 110.794434 C 366.404419 114.046272 362.695953 115.634048 358.215424 115.634048 C 353.734894 115.634048 350.026398 114.046272 346.98407 110.794434 Z M 399.81366 105.313522 C 401.371918 103.588394 402.143982 101.435806 402.143982 98.825157 C 402.143982 96.214516 401.371918 94.046623 399.81366 92.397766 C 398.254242 90.67263 396.286438 89.848198 393.894958 89.848198 C 391.502258 89.848198 389.534454 90.67263 387.915009 92.397766 C 386.355591 94.046623 385.583527 96.214516 385.583527 98.825157 C 385.583527 101.435806 386.355591 103.603691 387.915009 105.313522 C 389.534454 106.962387 391.563446 107.802124 393.894958 107.802124 C 396.22525 107.802124 398.254242 106.977684 399.81366 105.313522 Z M 402.143982 70.153847 L 409.849274 70.153847 L 409.849274 114.748535 L 402.143982 114.748535 L 402.143982 110.992867 C 399.873688 114.107353 396.648926 115.649231 392.456757 115.649231 C 388.263367 115.649231 384.993896 114.061569 382.117493 110.809624 C 379.302307 107.557793 377.879395 103.54261 377.879395 98.840454 C 377.879395 94.138191 379.317596 90.18409 382.117493 86.932144 C 384.978577 83.680313 388.444611 82.031555 392.456757 82.031555 C 396.467682 82.031555 399.873688 83.558258 402.143982 86.67263 L 402.143982 70.169113 L 402.143982 70.153847 Z M 436.930206 105.115089 C 438.489624 103.466225 439.261688 101.359421 439.261688 98.80986 C 439.261688 96.2603 438.489624 94.168671 436.930206 92.504623 C 435.370789 90.855759 433.464203 90.016144 431.132721 90.016144 C 428.801239 90.016144 426.893433 90.840576 425.335175 92.504623 C 423.835815 94.229752 423.063751 96.321381 423.063751 98.80986 C 423.063751 101.29834 423.835815 103.389961 425.335175 105.115089 C 426.893433 106.763962 428.801239 107.603569 431.132721 107.603569 C 433.464203 107.603569 435.370789 106.779137 436.930206 105.115089 Z M 419.900177 110.779137 C 416.857849 107.527306 415.359619 103.588394 415.359619 98.80986 C 415.359619 94.031326 416.857849 90.153488 419.900177 86.901657 C 422.943695 83.649826 426.712189 82.000961 431.132721 82.000961 C 435.552032 82.000961 439.321716 83.649826 442.364044 86.901657 C 445.407562 90.153488 446.96582 94.168671 446.96582 98.80986 C 446.96582 103.451042 445.407562 107.527306 442.364044 110.779137 C 439.321716 114.030968 435.61322 115.618752 431.132721 115.618752 C 426.652161 115.618752 422.943695 114.030968 419.900177 110.779137 Z M 480.313873 95.176346 L 480.313873 114.733238 L 472.608551 114.733238 L 472.608551 96.199219 C 472.608551 94.092407 472.078949 92.504623 470.989105 91.298515 C 469.974609 90.214569 468.537598 89.649651 466.689819 89.649651 C 462.330505 89.649651 460.120239 92.260292 460.120239 97.542664 L 460.120239 114.733238 L 452.416138 114.733238 L 452.416138 82.901779 L 460.120239 82.901779 L 460.120239 86.474197 C 461.966827 83.48188 464.904419 82.016258 469.021301 82.016258 C 472.306091 82.016258 475.001251 83.161285 477.090271 85.512421 C 479.239319 87.863434 480.313873 91.054306 480.313873 95.19165"/>
        <path id="path8" fill="#000000" stroke="none" d="M 251.965866 95.420563 L 251.965866 115.328644 L 244.139816 115.328644 L 244.139816 96.015968 C 244.139816 91.939697 242.444458 89.878677 239.038452 89.878677 C 235.284424 89.878677 233.392166 92.336678 233.392166 97.176292 L 233.392166 107.756332 L 225.62674 107.756332 L 225.62674 97.176292 C 225.62674 92.321373 223.749664 89.878677 219.980453 89.878677 C 216.58963 89.878677 214.879089 91.939697 214.879089 96.015968 L 214.879089 115.328644 L 207.068222 115.328644 L 207.068222 95.420563 C 207.068222 91.359596 208.097565 88.123062 210.156235 85.726151 C 212.290695 83.329231 215.075882 82.107826 218.527313 82.107826 C 222.523544 82.107826 225.566116 83.665131 227.564301 86.764313 L 229.517044 90.06192 L 231.469788 86.764313 C 233.46785 83.665131 236.495361 82.107826 240.506775 82.107826 C 243.958099 82.107826 246.743393 83.329231 248.877853 85.726151 C 250.936523 88.123062 251.965866 91.344299 251.965866 95.420563 Z M 278.895325 105.313522 C 280.515015 103.588394 281.287079 101.435806 281.287079 98.825157 C 281.287079 96.214516 280.515015 94.046623 278.895325 92.397766 C 277.336151 90.67263 275.368347 89.848198 272.976593 89.848198 C 270.584869 89.848198 268.617065 90.67263 267.057861 92.397766 C 265.498688 94.046623 264.726746 96.214516 264.726746 98.825157 C 264.726746 101.435806 265.498688 103.603691 267.057861 105.313522 C 268.617065 106.962387 270.584869 107.802124 272.976593 107.802124 C 275.368347 107.802124 277.336151 106.977684 278.895325 105.313522 Z M 281.287079 82.901779 L 288.992004 82.901779 L 288.992004 114.748535 L 281.287079 114.748535 L 281.287079 110.992867 C 278.955841 114.107353 275.731659 115.649231 271.538513 115.649231 C 267.34552 115.649231 264.121216 114.061569 261.260223 110.809624 C 258.444702 107.557793 257.02179 103.54261 257.02179 98.840454 C 257.02179 94.138191 258.459747 90.18409 261.260223 86.932144 C 264.136292 83.680313 267.542297 82.031555 271.538513 82.031555 C 275.534882 82.031555 278.955841 83.558258 281.287079 86.67263 L 281.287079 82.916962 L 281.287079 82.901779 Z M 314.937683 98.244934 C 317.207977 99.970184 318.343689 102.382278 318.282501 105.435684 C 318.282501 108.687515 317.147949 111.237198 314.816467 113.00811 C 312.484985 114.733238 309.6698 115.618752 306.263794 115.618752 C 300.102631 115.618752 295.924561 113.069191 293.714294 108.046333 L 300.40509 104.031143 C 301.29837 106.763962 303.266174 108.168495 306.263794 108.168495 C 309.018951 108.168495 310.380646 107.282982 310.380646 105.435684 C 310.380646 104.092224 308.595276 102.886124 304.946808 101.939529 C 303.569824 101.557968 302.434082 101.176292 301.540802 100.855576 C 300.285034 100.35186 299.20932 99.771637 298.31723 99.069366 C 296.106964 97.344238 294.971252 95.054184 294.971252 92.122948 C 294.971252 89.008461 296.045776 86.519989 298.196014 84.733772 C 300.40509 82.886475 303.10022 82.000961 306.323822 82.000961 C 311.47168 82.000961 315.224884 84.229935 317.677582 88.748947 L 311.108002 92.565704 C 310.154694 90.39782 308.534058 89.313873 306.323822 89.313873 C 303.99353 89.313873 302.857788 90.199272 302.857788 91.924515 C 302.857788 93.267975 304.644348 94.474083 308.292816 95.420563 C 311.108002 96.061867 313.318268 97.008347 314.922394 98.229752 L 314.937683 98.244934 Z M 339.444733 90.794678 L 332.693878 90.794678 L 332.693878 104.046448 C 332.693878 105.634232 333.298828 106.596016 334.43457 107.038765 C 335.266632 107.35936 336.947296 107.420441 339.460022 107.298279 L 339.460022 114.748535 C 334.268616 115.389725 330.498962 114.870705 328.288696 113.160751 C 326.07843 111.511887 325.003906 108.443306 325.003906 104.06163 L 325.003906 90.794678 L 319.81131 90.794678 L 319.81131 82.901779 L 325.003906 82.901779 L 325.003906 76.47435 L 332.709198 73.98584 L 332.709198 82.901779 L 339.460022 82.901779 L 339.460022 90.794678 L 339.444733 90.794678 Z M 364.012939 105.130394 C 365.572357 103.481529 366.344391 101.374725 366.344391 98.825157 C 366.344391 96.275597 365.572357 94.183975 364.012939 92.519928 C 362.453491 90.871056 360.546906 90.031326 358.215424 90.031326 C 355.883942 90.031326 353.977325 90.855759 352.417908 92.519928 C 350.919678 94.245056 350.147614 96.336678 350.147614 98.825157 C 350.147614 101.313644 350.919678 103.405258 352.417908 105.130394 C 353.977325 106.779137 355.883942 107.618874 358.215424 107.618874 C 360.546906 107.618874 362.453491 106.794441 364.012939 105.130394 Z M 346.98407 110.794434 C 343.940552 107.542488 342.442322 103.603691 342.442322 98.825157 C 342.442322 94.046623 343.940552 90.168793 346.98407 86.916962 C 350.026398 83.665131 353.794891 82.016258 358.215424 82.016258 C 362.635925 82.016258 366.404419 83.665131 369.447937 86.916962 C 372.490265 90.168793 374.049713 94.183975 374.049713 98.825157 C 374.049713 103.466225 372.490265 107.542488 369.447937 110.794434 C 366.404419 114.046272 362.695953 115.634048 358.215424 115.634048 C 353.734894 115.634048 350.026398 114.046272 346.98407 110.794434 Z M 399.81366 105.313522 C 401.371918 103.588394 402.143982 101.435806 402.143982 98.825157 C 402.143982 96.214516 401.371918 94.046623 399.81366 92.397766 C 398.254242 90.67263 396.286438 89.848198 393.894958 89.848198 C 391.502258 89.848198 389.534454 90.67263 387.915009 92.397766 C 386.355591 94.046623 385.583527 96.214516 385.583527 98.825157 C 385.583527 101.435806 386.355591 103.603691 387.915009 105.313522 C 389.534454 106.962387 391.563446 107.802124 393.894958 107.802124 C 396.22525 107.802124 398.254242 106.977684 399.81366 105.313522 Z M 402.143982 70.153847 L 409.849274 70.153847 L 409.849274 114.748535 L 402.143982 114.748535 L 402.143982 110.992867 C 399.873688 114.107353 396.648926 115.649231 392.456757 115.649231 C 388.263367 115.649231 384.993896 114.061569 382.117493 110.809624 C 379.302307 107.557793 377.879395 103.54261 377.879395 98.840454 C 377.879395 94.138191 379.317596 90.18409 382.117493 86.932144 C 384.978577 83.680313 388.444611 82.031555 392.456757 82.031555 C 396.467682 82.031555 399.873688 83.558258 402.143982 86.67263 L 402.143982 70.169113 L 402.143982 70.153847 Z M 436.930206 105.115089 C 438.489624 103.466225 439.261688 101.359421 439.261688 98.80986 C 439.261688 96.2603 438.489624 94.168671 436.930206 92.504623 C 435.370789 90.855759 433.464203 90.016144 431.132721 90.016144 C 428.801239 90.016144 426.893433 90.840576 425.335175 92.504623 C 423.835815 94.229752 423.063751 96.321381 423.063751 98.80986 C 423.063751 101.29834 423.835815 103.389961 425.335175 105.115089 C 426.893433 106.763962 428.801239 107.603569 431.132721 107.603569 C 433.464203 107.603569 435.370789 106.779137 436.930206 105.115089 Z M 419.900177 110.779137 C 416.857849 107.527306 415.359619 103.588394 415.359619 98.80986 C 415.359619 94.031326 416.857849 90.153488 419.900177 86.901657 C 422.943695 83.649826 426.712189 82.000961 431.132721 82.000961 C 435.552032 82.000961 439.321716 83.649826 442.364044 86.901657 C 445.407562 90.153488 446.96582 94.168671 446.96582 98.80986 C 446.96582 103.451042 445.407562 107.527306 442.364044 110.779137 C 439.321716 114.030968 435.61322 115.618752 431.132721 115.618752 C 426.652161 115.618752 422.943695 114.030968 419.900177 110.779137 Z M 480.313873 95.176346 L 480.313873 114.733238 L 472.608551 114.733238 L 472.608551 96.199219 C 472.608551 94.092407 472.078949 92.504623 470.989105 91.298515 C 469.974609 90.214569 468.537598 89.649651 466.689819 89.649651 C 462.330505 89.649651 460.120239 92.260292 460.120239 97.542664 L 460.120239 114.733238 L 452.416138 114.733238 L 452.416138 82.901779 L 460.120239 82.901779 L 460.120239 86.474197 C 461.966827 83.48188 464.904419 82.016258 469.021301 82.016258 C 472.306091 82.016258 475.001251 83.161285 477.090271 85.512421 C 479.239319 87.863434 480.313873 91.054306 480.313873 95.19165"/>
    </g>
</svg>
